{"title":"R I P D 2013 HDRip NOSUBS XVID AC3-5 1 HQ Hive-CM8","uid":8860398,"size":1512470922,"categoryP":"video","categoryS":"movies","magnet":"?xt=urn:btih:9657595144792b91a128a083ddc97c94607d41b3&amp;dn=R+I+P+D+2013+HDRip+NOSUBS+XVID+AC3-5+1+HQ+Hive-CM8&amp;tr=udp%3A%2F%2Ftracker.openbittorrent.com%3A80&amp;tr=udp%3A%2F%2Fopen.demonii.com%3A1337&amp;tr=udp%3A%2F%2Ftracker.coppersurfer.tk%3A6969&amp;tr=udp%3A%2F%2Fexodus.desync.com%3A6969","seeders":7,"leechers":0,"uploader":"HeroMaster","files":-1,"time":1377759446,"description":"R I P D 2013 HDRip NOSUBS XVID AC3-5 1 HQ Hive-CM8\n\nThx Hive\nCM8 Doing It Right The First Time\n\nSources:\nVideo: Russian 1080p WEB-Dl\nAudio: SMY + Russian 5.1 Track\nthx\n\nEncode:\nFinally the Russian Web-Dl came around has no subs unlike the chinese one.\nVideo had that typical yellowish colourtone, so had to fix that, also adjusted brightness,contrast,saturation\nadded sharpness and denoise\ntook the smy audio, cleaned it over and synced it to the Russian Video.\ncleaned the russian 5.1 track from russian voice and embedded the smy audio in it\nlooks and sounds very perfect now almost retailish, all that nice special audio effects are now inside again\nwill do me till bluray\nenjoy\nPs: yes i am around for whom it may concern, just very little time\n\nVideo: 720x304 @bitrate 1700 2pass\nAudio: English AC3 5.1 @384\nSample: yes included &lt;a href=&quot;\nhttp://www.imdb.com/title/tt0790736/&quot; rel=&quot;nofollow&quot; target=&quot;_NEW&quot;&gt;\nhttp://www.imdb.com/title/tt0790736/&lt;/a&gt;\n\n\nGeneral\nComplete name                  : R.I.P.D.2013.HDRip.NOSUBS.XVID.AC3-5.1.HQ.Hive-CM8.avi\nFormat                         : AVI\nFormat/Info                    : Audio Video Interleave\nFile size                      : 1.40 GiB\nDuration                       : 1h 35mn\nOverall bit rate               : 2 088 Kbps\nWriting application            : Nandub v1.0rc2\nWriting library                : Nandub build 1853/release\n\nVideo\nID                             : 0\nFormat                         : MPEG-4 Visual\nFormat profile                 : Advanced Simple@L5\nFormat settings, BVOP          : 2\nFormat settings, QPel          : Yes\nFormat settings, GMC           : No warppoints\nFormat settings, Matrix        : Default (H.263)\nMuxing mode                    : Packed bitstream\nCodec ID                       : XVID\nCodec ID/Hint                  : XviD\nDuration                       : 1h 35mn\nBit rate                       : 1 695 Kbps\nWidth                          : 720 pixels\nHeight                         : 304 pixels\nDisplay aspect ratio           : 2.35:1\nFrame rate                     : 23.976 fps\nColor space                    : YUV\nChroma subsampling             : 4:2:0\nBit depth                      : 8 bits\nScan type                      : Progressive\nCompression mode               : Lossy\nBits/(Pixel*Frame)             : 0.323\nStream size                    : 1.13 GiB (81%)\nWriting library                : XviD 1.2.1 (UTC 2008-12-04)\n\nAudio\nID                             : 1\nFormat                         : AC-3\nFormat/Info                    : Audio Coding 3\nMode extension                 : CM (complete main)\nFormat settings, Endianness    : Big\nCodec ID                       : 2000\nDuration                       : 1h 35mn\nBit rate mode                  : Constant\nBit rate                       : 384 Kbps\nChannel(s)                     : 6 channels\nChannel positions              : Front: L C R, Side: L R, LFE\nSampling rate                  : 48.0 KHz\nBit depth                      : 16 bits\nCompression mode               : Lossy\nStream size                    : 263 MiB (18%)\nAlignment                      : Split accross interleaves\nInterleave, duration           : 42 ms (1.00 video frame)\nInterleave, preload duration   : 500 ms\nPlot:\nA recently slain cop joins a team of undead police officers working for the Rest \nin Peace Department and tries to find the man who murdered him.  \n\nCast:\nJeff Bridges\t... Roy\nRyan Reynolds\t... Nick\nKevin Bacon\t... Hayes\nMary-Louise Parker\t... Proctor\n\nGreetz:\nLTFS,ViSiON,SPK,SceneLovers,PRESTiGE,SANTi,3LT0N,YanKeeS,COPYxRIGHT,THC,T0XiC\nD2U,LKRG,ADTRG,Feel-Free,KoDeKinG,FLAWL3SS,WBZ,BHRG,26K,NOVA,MAGNET\nUnevano,BigVik,Rapeseed,SAFC,goldadvance,KaN1vE,Pinnz,Wayne,HiGH\nSeeN,jtr,Limey,ICONiK,4PlayHD,THEDEN-RG,eXceSs,AKS74u,TED\nMr Hive,rkofan,and most P2P groups\nGreat Work Guys :D\n\nLOOKING FOR ANYTHING YOU WANT TO LOOK AND SOUND BETTER\n&lt;a class=&quot;__cf_email__&quot; href=&quot;/cdn-cgi/l/email-protection&quot; data-cfemail=&quot;d7949aef97bfa2a4bfbab6bebbf9bab2&quot;&gt;[email&amp;#160;protected]&lt;/a&gt;&lt;script cf-hash='f9e31' type=&quot;text/javascript&quot;&gt;\n/* &lt;![CDATA[ */!function(){try{var t=&quot;currentScript&quot;in document?document.currentScript:function(){for(var t=document.getElementsByTagName(&quot;script&quot;),e=t.length;e--;)if(t[e].getAttribute(&quot;cf-hash&quot;))return t[e]}();if(t&amp;&amp;t.previousSibling){var e,r,n,i,c=t.previousSibling,a=c.getAttribute(&quot;data-cfemail&quot;);if(a){for(e=&quot;&quot;,r=parseInt(a.substr(0,2),16),n=2;a.length-n;n+=2)i=parseInt(a.substr(n,2),16)^r,e+=String.fromCharCode(i);e=document.createTextNode(e),c.parentNode.replaceChild(e,c)}}}catch(u){}}();/* ]]&gt; */&lt;/script&gt;\n\n\nPoster:\n\n &lt;a href=&quot;\nhttp://i.imgur.com/faVcdJq.jpg&quot; rel=&quot;nofollow&quot; target=&quot;_NEW&quot;&gt;\nhttp://i.imgur.com/faVcdJq.jpg&lt;/a&gt;\n\n\nScreenshots:\n\n &lt;a href=&quot;\nhttp://i.imgur.com/2dBVYEG.jpg&quot; rel=&quot;nofollow&quot; target=&quot;_NEW&quot;&gt;\nhttp://i.imgur.com/2dBVYEG.jpg&lt;/a&gt;\n\n\nSEED AND ENJOY!","torrent":{"xt":"urn:btih:9657595144792b91a128a083ddc97c94607d41b3","amp;dn":"R+I+P+D+2013+HDRip+NOSUBS+XVID+AC3-5+1+HQ+Hive-CM8","amp;tr":["udp%3A%2F%2Ftracker.openbittorrent.com%3A80","udp%3A%2F%2Fopen.demonii.com%3A1337","udp%3A%2F%2Ftracker.coppersurfer.tk%3A6969","udp%3A%2F%2Fexodus.desync.com%3A6969"],"infoHash":"9657595144792b91a128a083ddc97c94607d41b3","infoHashBuffer":{"type":"Buffer","data":[150,87,89,81,68,121,43,145,161,40,160,131,221,201,124,148,96,125,65,179]},"announce":[],"urlList":[]}}